<svg width="48" height="48" viewBox="0 0 48 48" fill="none" xmlns="http://www.w3.org/2000/svg">
<path fill-rule="evenodd" clip-rule="evenodd" d="M5 24C5 22.8954 5.89543 22 7 22H42C43.1046 22 44 22.8954 44 24C44 25.1046 43.1046 26 42 26H7C5.89543 26 5 25.1046 5 24Z" fill="black"/>
<path fill-rule="evenodd" clip-rule="evenodd" d="M21.4142 8.58579C22.1953 9.36683 22.1953 10.6332 21.4142 11.4142L8.82843 24L21.4142 36.5858C22.1953 37.3668 22.1953 38.6332 21.4142 39.4142C20.6332 40.1953 19.3668 40.1953 18.5858 39.4142L4.58579 25.4142C3.80474 24.6332 3.80474 23.3668 4.58579 22.5858L18.5858 8.58579C19.3668 7.80474 20.6332 7.80474 21.4142 8.58579Z" fill="black"/>
</svg>
